<svg width="127" height="258" viewBox="0 0 127 258" fill="none" xmlns="http://www.w3.org/2000/svg">
<path d="M114.593 230.394C115.314 231.816 115.637 233.406 115.528 234.997C115.456 236.388 114.623 238.197 114.999 241.336C115.375 244.476 116.097 245.472 116.432 247.686C116.629 248.703 116.622 249.748 116.411 250.761C116.199 251.775 115.789 252.736 115.202 253.589C113.901 255.703 111.036 257.379 105.365 257.176C100.791 257.013 98.9416 254.666 98.84 251.974L114.593 230.394Z" fill="#263238"/>
<path d="M113.292 223.912C113.432 224.496 113.524 225.091 113.566 225.69C113.739 226.757 114.054 227.722 114.308 228.809C114.379 229.083 114.44 229.358 114.501 229.632C114.938 231.735 114.501 233.91 114.501 236.053C114.677 238.586 115.123 241.093 115.832 243.531C116.849 247.981 117.021 250.958 113.129 254.037C111.096 255.662 108.83 255.713 106.228 255.784C104.228 255.854 102.246 255.376 100.496 254.402C98.8298 253.173 98.8501 252.137 98.8399 251.74C98.6875 247.016 100.395 241.519 100.74 236.805C100.869 235.536 100.896 234.258 100.822 232.985C100.659 231.42 100.12 229.866 99.9477 228.291C99.8264 227.704 99.9014 227.094 100.161 226.554C100.424 226.255 100.748 226.016 101.111 225.853C101.473 225.69 101.867 225.607 102.265 225.609C104.297 225.334 106.411 225.131 108.495 224.979C108.985 224.886 109.492 224.988 109.907 225.263C110.314 225.629 110.324 226.279 110.436 226.777C110.548 227.275 110.934 227.915 111.452 227.793C111.624 227.738 111.775 227.633 111.887 227.492C111.999 227.351 112.067 227.18 112.082 227.001C112.133 226.655 112.286 223.953 112.275 223.556C112.316 223.577 113.048 223.465 113.292 223.912Z" fill="#37474F"/>
<path d="M44.4681 239.589C44.1334 240.424 44.1334 241.355 44.4681 242.19C44.8035 242.962 48.6755 245.36 54.0314 245.238C57.9947 245.111 61.853 243.933 65.2107 241.824C67.2941 240.554 69.4283 240.392 72.0809 240.341C74.7334 240.29 77.8433 239.325 78.7478 238.136C79.088 236.972 79.088 235.734 78.7478 234.57L44.4681 239.589Z" fill="#263238"/>
<path d="M63.8591 223.77C63.6537 224.152 63.4705 224.545 63.3103 224.948C62.6537 226.4 61.6397 227.662 60.363 228.616C58.5151 229.894 56.5314 230.964 54.4482 231.806C53.127 232.396 51.7448 232.558 50.383 233.025C48.8735 233.508 47.419 234.149 46.0434 234.936C43.8889 236.256 43.4824 239.802 45.8097 241.306C47.8423 242.596 53.1981 244.13 58.9504 242.749C62.0907 241.997 65.6579 238.817 69.7434 238.685C72.335 238.593 77.264 238.065 79.0121 236.165C79.6523 233.33 78.9511 232.528 78.3718 230.069C78.062 228.708 77.8985 227.319 77.884 225.924C77.884 225.192 78.3718 223.089 76.8677 222.876L76.7153 224.45C76.7153 224.45 76.4205 224.979 74.8148 225.263C74.2964 225.355 73.8899 226.035 73.6155 226.655C73.3411 227.275 73.1684 227.752 72.5992 227.742C72.4217 227.717 72.254 227.646 72.113 227.535C71.972 227.425 71.8628 227.279 71.7964 227.112C71.6739 226.781 71.5754 226.442 71.5016 226.096C71.2961 225.543 70.9723 225.04 70.5528 224.625C70.1334 224.209 69.6282 223.889 69.0727 223.688C68.1511 223.377 67.1959 223.176 66.2271 223.089C65.4953 222.977 64.8856 222.662 64.1945 223.292C64.0623 223.436 63.9495 223.597 63.8591 223.77Z" fill="#37474F"/>
<path d="M105.558 102.926C106.574 118.441 107.113 127.473 109.887 169.81C111.929 177.055 113.226 184.49 113.759 191.999C114.308 201.367 115.639 229.591 115.639 229.591C115.639 229.591 108.088 235.789 99.3786 232.924C99.3786 232.924 91.4718 191.43 88.7075 178.486C86.0651 166.061 84.0325 152.477 84.0325 152.477L82.071 169.81C82.071 169.81 82.4166 177.521 82.1727 189.033C82.0507 195.19 79.1238 228.514 79.1238 228.514C79.1238 228.514 68.5238 233.33 61.3691 227.143C61.3691 227.143 60.8508 173.102 60.739 167.534C60.617 161.174 61.7553 97.2162 61.7553 97.2162L105.558 102.926Z" fill="#455A64"/>
<path d="M83.9919 152.487L78.575 124.11C78.575 124.11 70.2007 123.378 65.5765 118.705C65.5765 118.705 66.3998 123.287 76.9286 126.03L82.1625 152.162L82.0711 169.81L83.9919 152.487Z" fill="#37474F"/>
<path d="M115.395 224.501C112.176 227.288 108.036 228.78 103.779 228.687C103.779 228.687 110.995 227.61 115.324 222.855L115.395 224.501Z" fill="#37474F"/>
<path d="M79.4592 224.583C79.4592 224.583 72.0707 227.163 65.8408 225.192C65.8408 225.192 70.6479 228.423 79.3474 225.771L79.4592 224.583Z" fill="#37474F"/>
<path d="M1.52954 45.1968C1.47702 44.9541 1.37306 44.7254 1.22466 44.5262C0.966273 44.0575 0.835853 43.5291 0.846557 42.9941C0.857261 42.459 1.00871 41.9362 1.28564 41.4782C1.4653 41.2544 1.61558 41.0086 1.73281 40.7467C1.93607 40.1879 1.68199 39.558 1.73281 38.9585C1.91574 36.2864 6.7533 37.4548 8.28791 37.9425C8.73508 38.0949 11.3368 38.7655 12.3531 39.1211C12.2622 37.6548 12.4063 36.1833 12.78 34.7624C13.471 31.9887 15.7577 32.2732 15.8898 33.9699C16.0156 35.506 16.3017 37.0247 16.7435 38.5013C17.0281 39.5885 17.7598 40.6654 18.1765 42.2707C18.7761 44.3027 18.6237 45.4406 20.6563 47.3507C23.7052 50.226 39.3561 60.8331 39.3561 60.8331C43.2587 58.3236 58.3609 49.0373 64.0216 45.969C69.4995 42.9921 72.2943 45.3898 72.2943 45.3898L67.5177 62.9769C67.5177 62.9769 48.6857 72.6899 41.8969 75.6566C37.1609 77.6886 35.0673 76.5507 29.8436 71.8974C25.6971 67.9756 20.2294 62.3063 14.3247 57.0841C11.9669 54.9911 10.2595 53.9243 8.59282 53.843C7.96271 53.843 7.3326 53.7719 6.71266 53.7109C5.31017 53.5484 3.66375 53.2029 2.98283 51.811C2.74909 51.3436 2.63729 50.795 2.4442 50.3276C2.14947 49.5758 1.68198 48.9052 1.4279 48.1534C1.21854 47.6494 1.14837 47.0986 1.22466 46.5582C1.22466 46.1214 1.59051 45.6845 1.52954 45.1968Z" fill="#E8F5E9"/>
<path d="M73.2902 44.0386C68.4729 44.0386 66.603 44.0386 60.4849 47.5133C54.3668 50.988 42.4354 58.8824 42.4354 58.8824C42.4354 58.8824 47.7811 61.8593 48.8483 72.4257L68.1579 63.363L73.2902 44.0386Z" fill="#455A64"/>
<path d="M10.4933 40.7366C12.0888 41.1227 12.5868 42.1285 12.6986 44.3739C12.7596 45.7048 13.3185 48.1331 14.8328 49.017C14.1318 48.9917 13.4549 48.7544 12.8917 48.3363C12.16 47.6759 11.9669 47.6149 11.6112 48.0417C11.3483 48.3281 11.0208 48.5475 10.6559 48.6817C10.9174 48.9435 11.0874 49.2827 11.1405 49.6488C11.1936 50.015 11.127 50.3885 10.9506 50.7137C10.3306 51.9126 7.2106 52.1463 4.56824 50.9982C4.56824 50.9982 8.80619 52.0142 9.64971 50.6325C10.4932 49.2507 8.21674 47.747 6.60083 47.4117C6.60083 47.4117 10.666 48.0925 11.1945 46.7412C11.723 45.3899 9.99526 44.5059 7.59681 44.0691C7.59681 44.0691 10.9506 44.445 11.4384 43.2766C11.621 42.8111 11.6256 42.2947 11.4512 41.8261C11.2769 41.3574 10.9358 40.9695 10.4933 40.7366Z" fill="#C8E6C9"/>
<path d="M39.3154 60.8636C41.4299 62.2754 43.0669 64.2945 44.0107 66.6548C44.0107 66.6548 44.346 62.1946 40.6772 60L39.3154 60.8636Z" fill="#C8E6C9"/>
<path d="M61.176 61.4121C61.7756 49.4538 66.5929 44.6277 73.2903 44.0385L88.3416 43.0225C92.4068 43.9673 102.976 45.9993 102.976 45.9993C107.357 47.31 110.436 58.7299 109.409 65.2323C108.383 71.7348 106.239 76.6929 105.639 87.6352C105.812 97.9985 105.964 100.051 105.964 104.115C96.6041 110.058 71.4609 111.298 61.5723 105.334C61.5723 105.334 61.3996 95.3162 61.1963 88.9357C60.8508 77.9933 60.9727 65.527 61.176 61.4121Z" fill="#4CAF4F"/>
<path d="M65.1294 10.6831C64.5242 11.0285 64.0235 11.5308 63.6801 12.137C63.3366 12.7432 63.1632 13.4308 63.1781 14.1274C63.1543 15.1705 63.4523 16.1957 64.0318 17.0636C64.9081 18.1705 66.121 18.9622 67.4872 19.3191C68.076 19.46 68.6508 19.6539 69.2047 19.8983C69.8948 20.3901 70.5408 20.9408 71.1357 21.5442C72.0605 22.2554 72.9752 22.9869 73.9203 23.6778C75.7944 25.077 77.7528 26.3596 79.7844 27.5183C81.7366 28.6356 83.7758 29.5938 85.8821 30.3834C88.1078 31.2064 89.9473 30.485 92.3255 30.6984L91.9799 37.1399C91.9799 37.1399 92.7727 35.6565 93.6772 33.8886C94.4597 32.3646 97.7423 24.6024 97.7423 24.6024C99.0229 21.5543 100.649 18.3641 100.456 14.9605C100.293 12.2071 99.7444 9.78902 97.6509 8.62061C97.4781 5.45068 96.7565 3.90635 94.5308 2.20962C92.8886 1.09948 91.0024 0.402371 89.0327 0.177615C86.8078 -0.0792517 84.557 -0.000483099 82.3556 0.411291C79.0628 0.939614 75.77 1.78291 72.4365 1.61019C70.6552 1.42036 68.8546 1.53371 67.1111 1.94545C66.0037 2.30454 65.042 3.01208 64.3698 3.96242C63.6976 4.91277 63.3508 6.05497 63.3813 7.21852C63.3102 8.42757 64.2757 10.4189 65.1294 10.6831Z" fill="#37474F"/>
<path d="M85.9838 11.5061C85.9838 13.5381 87.8538 16.4134 90.6994 18.8925C90.3634 20.7729 90.4153 22.7021 90.8519 24.5618C91.0266 25.1397 91.2943 25.6854 91.6446 26.1772C91.7744 26.3831 91.9485 26.5574 92.1542 26.6874C92.3599 26.8175 92.592 26.9001 92.8336 26.9291C93.4942 26.9291 93.7585 26.5836 93.9617 26.0655C94.2618 25.4089 94.6012 24.7711 94.978 24.1554C95.1458 23.8925 95.3399 23.6474 95.5573 23.4239C96.5736 22.4993 99.5107 21.3919 100.883 24.5211C102.255 27.6504 99.6835 32.0802 97.3053 32.7406C93.2401 33.8887 92.3153 31.0947 92.3153 31.0947L92.3865 44.6482C91.238 48.0823 84.876 51.425 79.7539 50.7442C74.6318 50.0635 76.2578 46.9749 78.3412 44.8819L78.077 40.1778C76.2537 40.3585 74.4142 40.2901 72.6093 39.9746C70.4853 39.5682 68.7372 37.5768 67.8531 34.3358C66.4446 28.1608 66.2376 21.7725 67.2433 15.5193C68.0157 11.6992 68.9608 10.0532 69.4181 9.6062C69.4181 10.4393 71.0137 12.9895 75.1501 13.5585C79.5201 14.1884 82.8333 12.8066 85.9838 11.5061Z" fill="#E8F5E9"/>
<path d="M78.0566 40.198C81.8373 39.8526 84.9065 39.3344 87.0407 38.166C88.6058 37.3431 89.9575 34.7726 90.364 33.8582C90.364 33.8582 90.2624 37.3735 88.1586 39.3243C85.191 42.0776 78.1684 42.0776 78.1684 42.0776L78.0566 40.198Z" fill="#C8E6C9"/>
<path d="M80.0385 22.9462C80.0406 23.2149 80.1217 23.477 80.2715 23.7C80.4213 23.923 80.6334 24.0971 80.8813 24.2007C81.1293 24.3043 81.4022 24.3328 81.6662 24.2827C81.9302 24.2326 82.1737 24.1062 82.3664 23.919C82.5592 23.7318 82.6927 23.4921 82.7505 23.2298C82.8082 22.9674 82.7875 22.6939 82.6911 22.4431C82.5947 22.1923 82.4268 21.9754 82.2082 21.8192C81.9895 21.663 81.7298 21.5744 81.4613 21.5645C81.2771 21.5618 81.0942 21.5954 80.923 21.6634C80.7518 21.7314 80.5957 21.8324 80.4636 21.9607C80.3315 22.089 80.2259 22.2421 80.153 22.4112C80.08 22.5803 80.0411 22.7621 80.0385 22.9462Z" fill="#263238"/>
<path d="M80.5365 18.4657L83.8598 19.8373C84.0329 19.3837 84.0237 18.8809 83.8343 18.4339C83.6449 17.987 83.2898 17.6306 82.8435 17.4395C82.6251 17.3502 82.391 17.306 82.1551 17.3095C81.9192 17.3131 81.6864 17.3644 81.4709 17.4602C81.2553 17.5561 81.0614 17.6946 80.9008 17.8674C80.7402 18.0402 80.6163 18.2437 80.5365 18.4657Z" fill="#263238"/>
<path d="M81.8373 30.3428L76.7559 32.3748C76.8763 32.7155 77.0646 33.0282 77.3094 33.294C77.5542 33.5599 77.8503 33.7733 78.18 33.9215C78.5096 34.0696 78.8659 34.1494 79.2273 34.156C79.5887 34.1626 79.9476 34.0958 80.2824 33.9598C80.9564 33.6716 81.4938 33.1354 81.7832 32.4621C82.0727 31.7888 82.0921 31.03 81.8373 30.3428Z" fill="#388E3B"/>
<path d="M78.8799 33.9089C78.8753 33.9935 78.8753 34.0783 78.8799 34.1629C79.3568 34.2399 79.8457 34.1836 80.2926 34.0004C80.8047 33.7813 81.2402 33.4153 81.5441 32.9487C81.848 32.4821 82.0067 31.9358 82 31.3791C81.8198 31.3387 81.6358 31.3183 81.4512 31.3181C80.7674 31.3235 80.1134 31.5988 79.6318 32.0841C79.1502 32.5694 78.8799 33.2253 78.8799 33.9089Z" fill="#C8E6C9"/>
<path d="M68.097 19.756L71.3796 18.486C71.304 18.2705 71.1856 18.0724 71.0315 17.9038C70.8775 17.7351 70.6909 17.5993 70.4831 17.5044C70.2753 17.4095 70.0504 17.3575 69.822 17.3516C69.5937 17.3457 69.3664 17.386 69.154 17.47C68.7118 17.6346 68.3526 17.9673 68.1547 18.3954C67.9567 18.8236 67.936 19.3126 68.097 19.756Z" fill="#263238"/>
<path d="M68.9406 22.6517C68.9296 22.8362 68.9555 23.021 69.0168 23.1954C69.078 23.3697 69.1734 23.5302 69.2973 23.6673C69.4213 23.8044 69.5712 23.9155 69.7386 23.9941C69.9059 24.0726 70.0872 24.1171 70.2719 24.1249C70.5571 24.145 70.8417 24.0794 71.0893 23.9366C71.3368 23.7937 71.536 23.5801 71.6611 23.3232C71.7863 23.0663 71.8318 22.7779 71.7917 22.4949C71.7516 22.212 71.6278 21.9475 71.4362 21.7355C71.2446 21.5235 70.9939 21.3736 70.7164 21.3051C70.4389 21.2366 70.1472 21.2526 69.8789 21.3511C69.6106 21.4496 69.3779 21.6261 69.2107 21.8578C69.0435 22.0896 68.9494 22.366 68.9406 22.6517Z" fill="#263238"/>
<path d="M76.2375 29.6722L71.1764 28.7172L75.953 20.6298L76.2375 29.6722Z" fill="#C8E6C9"/>
<path d="M103.85 46.2433C110.182 47.3406 114.013 49.3726 115.639 54.3713C117.946 61.4834 124.4 81.6307 125.731 88.7936C126.544 93.1929 127.815 95.9767 124.085 98.8723C115.197 105.302 105.917 111.172 96.2993 116.449C87.8437 120.879 75.079 121.753 75.079 121.753L84.3375 116.155L85.9839 113.015L110.731 91.0999L101.381 63.4849C101.381 63.4849 99.0229 49.2913 103.85 46.2433Z" fill="#E8F5E9"/>
<path d="M110.731 91.0998C112.742 90.0641 114.973 89.5274 117.235 89.5352C117.235 89.5352 115.04 87.6454 110.192 89.5352L110.731 91.0998Z" fill="#C8E6C9"/>
<path d="M102.976 45.9994C105.873 46.5379 109.074 46.8528 112.021 48.7223C114.969 50.5917 115.507 52.8574 117.774 59.8374C120.04 66.8173 122.713 77.1095 122.713 77.1095C122.713 77.1095 117.164 81.8034 107.611 81.9355C107.611 81.9355 102.905 68.8798 101.747 65.974C100.588 63.0683 97.6712 53.7007 102.976 45.9994Z" fill="#455A64"/>
<path d="M92.7727 108.717V109.591C92.7823 110.022 92.6784 110.448 92.4715 110.826C92.2646 111.204 91.9619 111.521 91.5938 111.745L68.5239 125.746C68.1499 125.956 67.7282 126.066 67.2992 126.066C66.8703 126.066 66.4486 125.956 66.0746 125.746L22.6178 101.951C22.2422 101.74 21.9276 101.436 21.705 101.067C21.4823 100.698 21.3591 100.278 21.3474 99.8477V99.2584L67.2738 124.435L92.7727 108.717Z" fill="#4CAF4F"/>
<g opacity="0.5">
<path opacity="0.5" d="M92.7727 108.717V109.591C92.7823 110.022 92.6784 110.448 92.4715 110.826C92.2646 111.204 91.9619 111.521 91.5938 111.745L68.5239 125.746C68.1499 125.956 67.7282 126.066 67.2992 126.066C66.8703 126.066 66.4486 125.956 66.0746 125.746L22.6178 101.951C22.2422 101.74 21.9276 101.436 21.705 101.067C21.4823 100.698 21.3591 100.278 21.3474 99.8477V99.2584L67.2738 124.435L92.7727 108.717Z" fill="white"/>
</g>
<g opacity="0.1">
<path opacity="0.1" d="M92.7727 108.717V109.591C92.7823 110.022 92.6784 110.448 92.4715 110.826C92.2646 111.204 91.9619 111.521 91.5938 111.745L68.5239 125.746C68.1499 125.956 67.7282 126.066 67.2992 126.066C66.8703 126.066 66.4486 125.956 66.0746 125.746L22.6178 101.951C22.2422 101.74 21.9276 101.436 21.705 101.067C21.4823 100.698 21.3591 100.278 21.3474 99.8477V99.2584L67.2738 124.435L92.7727 108.717Z" fill="#103E13"/>
</g>
<path d="M21.3372 99.2584L46.4499 84.0183C46.6727 83.8909 46.9249 83.8239 47.1816 83.8239C47.4383 83.8239 47.6905 83.8909 47.9133 84.0183L92.6304 108.524C92.6788 108.553 92.7189 108.594 92.7468 108.643C92.7746 108.692 92.7893 108.747 92.7893 108.804C92.7893 108.86 92.7746 108.915 92.7468 108.964C92.7189 109.013 92.6788 109.054 92.6304 109.083L67.2738 124.476L21.3372 99.2584Z" fill="#4CAF4F"/>
<g opacity="0.85">
<path opacity="0.85" d="M21.3372 99.2584L46.4499 84.0183C46.6727 83.8909 46.9249 83.8239 47.1816 83.8239C47.4383 83.8239 47.6905 83.8909 47.9133 84.0183L92.6304 108.524C92.6788 108.553 92.7189 108.594 92.7468 108.643C92.7746 108.692 92.7893 108.747 92.7893 108.804C92.7893 108.86 92.7746 108.915 92.7468 108.964C92.7189 109.013 92.6788 109.054 92.6304 109.083L67.2738 124.476L21.3372 99.2584Z" fill="white"/>
</g>
<path d="M67.0502 122.047L80.5974 113.828L40.3724 91.7806L26.754 99.9595L67.0502 122.047Z" fill="#4CAF4F"/>
<g opacity="0.6">
<path opacity="0.6" d="M67.0502 122.047L80.5974 113.828L40.3724 91.7806L26.754 99.9595L67.0502 122.047Z" fill="white"/>
</g>
<path d="M73.7171 100.112L73.463 100.264L66.8266 104.298L54.7123 97.6531L54.4583 97.521L61.3487 93.3351L73.7171 100.112Z" fill="#4CAF4F"/>
<path d="M73.4631 100.264L66.8267 104.298L54.7124 97.6531L61.359 93.6298L73.4631 100.264Z" fill="#4CAF4F"/>
<g opacity="0.6">
<path opacity="0.6" d="M73.4631 100.264L66.8267 104.298L54.7124 97.6531L61.359 93.6298L73.4631 100.264Z" fill="white"/>
</g>
<path d="M67.2637 124.435V126.061C66.8348 126.075 66.41 125.973 66.034 125.766L22.6178 101.951C22.2422 101.74 21.9276 101.436 21.705 101.067C21.4823 100.698 21.3591 100.278 21.3474 99.8477V99.2584L67.2637 124.435Z" fill="#4CAF4F"/>
<g opacity="0.03">
<path opacity="0.03" d="M67.2637 124.435V126.061C66.8348 126.075 66.41 125.973 66.034 125.766L22.6178 101.951C22.2422 101.74 21.9276 101.436 21.705 101.067C21.4823 100.698 21.3591 100.278 21.3474 99.8477V99.2584L67.2637 124.435Z" fill="white"/>
</g>
<g opacity="0.2">
<path opacity="0.2" d="M67.2637 124.435V126.061C66.8348 126.075 66.41 125.973 66.034 125.766L22.6178 101.951C22.2422 101.74 21.9276 101.436 21.705 101.067C21.4823 100.698 21.3591 100.278 21.3474 99.8477V99.2584L67.2637 124.435Z" fill="#103E13"/>
</g>
<path d="M66.5827 124.811C66.1808 124.979 65.7461 125.053 65.3112 125.029C64.8764 125.004 64.4528 124.881 64.0725 124.669L20.8189 100.955C20.4402 100.745 20.1126 100.454 19.8596 100.103C19.6066 99.7516 19.4345 99.3487 19.3554 98.9231L14.0707 71.1455C14.0562 70.9867 14.0562 70.8268 14.0707 70.668C14.0608 70.2842 14.1276 69.9023 14.2672 69.5447C14.4068 69.187 14.6164 68.8608 14.8837 68.5852L59.7837 93.2335C60.062 93.383 60.3032 93.5929 60.4896 93.8478C60.676 94.1028 60.8029 94.3962 60.861 94.7067L66.5827 124.811Z" fill="#4CAF4F"/>
<g opacity="0.4">
<path opacity="0.4" d="M66.5827 124.811C66.1808 124.979 65.7461 125.053 65.3112 125.029C64.8764 125.004 64.4528 124.881 64.0725 124.669L20.8189 100.955C20.4402 100.745 20.1126 100.454 19.8596 100.103C19.6066 99.7516 19.4345 99.3487 19.3554 98.9231L14.0707 71.1455C14.0562 70.9867 14.0562 70.8268 14.0707 70.668C14.0608 70.2842 14.1276 69.9023 14.2672 69.5447C14.4068 69.187 14.6164 68.8608 14.8837 68.5852L59.7837 93.2335C60.062 93.383 60.3032 93.5929 60.4896 93.8478C60.676 94.1028 60.8029 94.3962 60.861 94.7067L66.5827 124.811Z" fill="white"/>
</g>
<path d="M67.2636 124.435L66.9791 124.608C66.8523 124.685 66.7198 124.753 66.5827 124.811L60.861 94.7473C60.8029 94.4369 60.676 94.1434 60.4896 93.8884C60.3032 93.6335 60.062 93.4236 59.7837 93.2741L14.8329 68.6258C15.0026 68.4431 15.1977 68.2857 15.4122 68.1584L60.4646 92.8473C60.7409 93.0018 60.9804 93.2145 61.1664 93.4706C61.3524 93.7267 61.4805 94.0202 61.5419 94.3307L67.2636 124.435Z" fill="#4CAF4F"/>
<g opacity="0.6">
<path opacity="0.6" d="M67.2636 124.435L66.9791 124.608C66.8523 124.685 66.7198 124.753 66.5827 124.811L60.861 94.7473C60.8029 94.4369 60.676 94.1434 60.4896 93.8884C60.3032 93.6335 60.062 93.4236 59.7837 93.2741L14.8329 68.6258C15.0026 68.4431 15.1977 68.2857 15.4122 68.1584L60.4646 92.8473C60.7409 93.0018 60.9804 93.2145 61.1664 93.4706C61.3524 93.7267 61.4805 94.0202 61.5419 94.3307L67.2636 124.435Z" fill="white"/>
</g>
<path d="M60.4443 93.8329L61.1151 93.4265C61.3273 93.6897 61.4737 93.9997 61.5419 94.3308L67.2637 124.435L66.9791 124.608C66.8524 124.685 66.7199 124.753 66.5828 124.811L60.861 94.7473C60.7966 94.4138 60.6537 94.1004 60.4443 93.8329Z" fill="#4CAF4F"/>
<path opacity="0.5" d="M60.4443 93.8329L61.1151 93.4265C61.3273 93.6897 61.4737 93.9997 61.5419 94.3308L67.2637 124.435L66.9791 124.608C66.8524 124.685 66.7199 124.753 66.5828 124.811L60.861 94.7473C60.7966 94.4138 60.6537 94.1004 60.4443 93.8329Z" fill="white"/>
<path opacity="0.1" d="M60.4443 93.8329L61.1151 93.4265C61.3273 93.6897 61.4737 93.9997 61.5419 94.3308L67.2637 124.435L66.9791 124.608C66.8524 124.685 66.7199 124.753 66.5828 124.811L60.861 94.7473C60.7966 94.4138 60.6537 94.1004 60.4443 93.8329Z" fill="#103E13"/>
<path d="M41.9579 99.6039C41.2352 97.2871 39.6486 95.3372 37.5269 94.1581C35.4435 93.0202 34.0308 93.5891 34.3865 95.4586C34.7422 97.328 36.724 99.7461 38.8176 100.894C40.9111 102.042 42.3136 101.463 41.9579 99.6039Z" fill="#455A64"/>
<path d="M93.6161 106.259C91.1974 107.955 87.9351 106.584 84.7236 106.97C81.5121 107.356 78.7681 108.148 76.1867 108.077C73.6053 108.006 72.3451 108.524 74.1541 110.587C75.9631 112.649 81.136 111.461 82.5385 112.091C82.938 112.324 83.2791 112.645 83.5361 113.029C83.793 113.414 83.9592 113.852 84.0218 114.31C84.0845 114.768 84.0421 115.234 83.8978 115.674C83.7535 116.113 83.5111 116.514 83.189 116.845C81.6747 118.603 91.8072 115.21 93.1588 113.127C94.5105 111.044 95.4455 106.523 93.6161 106.259Z" fill="#E8F5E9"/>
</svg>
